PathFileType	3	(X/Y/Z)	F:\ViconData\AntennenMessung\Messung1\Session1\ID24.trc
DataRate	CameraRate	NumFrames	NumMarkers	Units	OrigDataRate	OrigDataStartFrame	OrigNumFrames
120.0	120.0	6	70	mm	120.0	946	1260	
Frame#	Time	Ashort			Along			Atop			A4			Bshort			Blong			Btop			B4			Cshort			Clong			Ctop			C4			Dshort			Dlong			Dtop			D4			Eshort			Elong			Etop			E4			Fshort			Flong			Ftop			F4			Gshort			Glong			Gtop			G4			Hshort			Hlong			Htop			H4			I1			I2			I3			I4			I5			WandAshort			WandAlong			WandAtop			WandA4			WandA15			WandBshort			WandB4			WandB5			WandBtop			WandBlong			WandCshort			WandClong			WandCtop			WandC4			WandC5			Acenter			Aantenna			Bcenter			Bantenna			Ccenter			Cantenna			Dcenter			Dantenna			Ecenter			Eantenna			Fcenter			Fantenna			Gcenter			Gantenna			Hcenter			Hantenna			Icenter			Iantenna			
		X1	Y1	Z1	X2	Y2	Z2	X3	Y3	Z3	X4	Y4	Z4	X5	Y5	Z5	X6	Y6	Z6	X7	Y7	Z7	X8	Y8	Z8	X9	Y9	Z9	X10	Y10	Z10	X11	Y11	Z11	X12	Y12	Z12	X13	Y13	Z13	X14	Y14	Z14	X15	Y15	Z15	X16	Y16	Z16	X17	Y17	Z17	X18	Y18	Z18	X19	Y19	Z19	X20	Y20	Z20	X21	Y21	Z21	X22	Y22	Z22	X23	Y23	Z23	X24	Y24	Z24	X25	Y25	Z25	X26	Y26	Z26	X27	Y27	Z27	X28	Y28	Z28	X29	Y29	Z29	X30	Y30	Z30	X31	Y31	Z31	X32	Y32	Z32	X33	Y33	Z33	X34	Y34	Z34	X35	Y35	Z35	X36	Y36	Z36	X37	Y37	Z37	X38	Y38	Z38	X39	Y39	Z39	X40	Y40	Z40	X41	Y41	Z41	X42	Y42	Z42	X43	Y43	Z43	X44	Y44	Z44	X45	Y45	Z45	X46	Y46	Z46	X47	Y47	Z47	X48	Y48	Z48	X49	Y49	Z49	X50	Y50	Z50	X51	Y51	Z51	X52	Y52	Z52	X53	Y53	Z53	X54	Y54	Z54	X55	Y55	Z55	X56	Y56	Z56	X57	Y57	Z57	X58	Y58	Z58	X59	Y59	Z59	X60	Y60	Z60	X61	Y61	Z61	X62	Y62	Z62	X63	Y63	Z63	X64	Y64	Z64	X65	Y65	Z65	X66	Y66	Z66	X67	Y67	Z67	X68	Y68	Z68	X69	Y69	Z69	X70	Y70	Z70	
946	7.875	-1038.1735	214.50296	-1644.1223	-1109.427	204.34395	-1599.311	-1064.2528	172.64214	-1625.0005	-1054.149	262.36987	-1634.9152	-1352.5428	235.25684	1003.355	-1281.4429	227.32968	1052.3287	-1322.6384	193.86292	1020.9781	-1284.4493	287.98685	1052.6959	814.18988	187.51463	1209.4706	892.12073	178.57285	1179.1902	844.40503	145.59158	1198.38	861.04333	292.6011	1168.4304	1115.7456	209.70561	-1401.6051	1056.2007	194.15285	-1460.312	1094.7159	162.21332	-1423.924	1069.6677	239.42313	-1426.2017	-1204.6954	1686.0569	-1562.8132	-1129.1774	1688.302	-1605.8641	-1173.1898	1724.2258	-1581.7437	-1134.0049	1581.0106	-1603.8821	-1239.5917	1699.1541	1119.5974	-1309.2722	1698.7256	1071.9747	-1270.4331	1736.3411	1096.981	-1244.896	1593.7816	1106.1111	988.92841	1664.2166	1162.182	957.63141	1700.2507	1183.9149	922.89905	1661.9812	1215.1769	939.83679	1659.4729	1159.8411	998.99493	1668.467	-1579.4218	1058.8859	1670.1863	-1518.6183	1024.9454	1708.0798	-1551.0873	1059.2561	1672.1865	-1585.4075	-180.53972	1639.1595	-226.19981	-266.39273	1637.8401	-229.16997	-219.25163	1675.3492	-228.90387	-217.33835	1636.5516	-259.35724	-220.60872	1640.9866	-180.2551																																														-1069.3022	210.06473	-1624.5453	-1074.5167	248.71169	-1624.0754	-1321.1627	231.75816	1024.9696	-1319.6536	270.51456	1029.0519	847.97852	183.63771	1196.3418	851.62036	222.41171	1194.2646	1088.5732	202.60834	-1428.395	1082.7448	240.93629	-1432.6373	-1171.938	1687.0306	-1581.4874	-1170.6262	1648.0536	-1581.219	-1270.9929	1698.9609	1098.1365	-1271.5768	1659.9839	1099.3414	953.22266	1705.3267	1186.9762	972.95044	1733.5261	1168.6296	1026.4883	1669.2562	-1551.5093	1028.0371	1630.2892	-1551.933	-218.73424	1638.5725	-227.52118	-218.18602	1599.6038	-226.05608
947	7.8833333	-1038.1628	214.48335	-1644.0116	-1109.4181	204.39552	-1599.3175	-1063.9918	172.32141	-1625.2759	-1054.162	262.38153	-1634.9156	-1352.5699	235.32361	1003.4311	-1281.4072	227.37917	1052.2689	-1322.6066	193.84288	1020.9766	-1284.3887	287.97604	1052.6995	814.03235	187.77481	1209.4197	892.19641	178.70644	1179.0697	844.41156	145.60333	1198.3788	861.00311	292.5386	1168.4399	1115.7355	209.70468	-1401.5941	1056.2173	194.16774	-1460.2961	1094.8129	162.11259	-1423.9121	1069.6989	239.45393	-1426.1997	-1204.6998	1686.0768	-1562.8101	-1129.151	1688.3081	-1605.8823	-1173.1678	1724.3026	-1581.8302	-1134.0469	1581.0242	-1603.8539	-1239.571	1699.1406	1119.5858	-1309.3649	1698.8727	1072.0333	-1270.4473	1736.353	1096.9843	-1244.9771	1593.6741	1106.1931	988.93701	1664.2151	1162.183	957.74103	1700.2209	1183.9429	922.25366	1662.1627	1215.0507	939.86548	1659.4796	1159.7863	999.01978	1668.4648	-1579.413	1058.8972	1670.1903	-1518.6211	1024.9508	1708.08	-1551.083	1059.2589	1672.1813	-1585.3988	-180.75073	1638.9976	-226.10938	-266.40094	1637.8374	-229.16931	-219.26381	1675.3452	-228.90356	-217.33615	1636.5371	-259.34821	-220.60101	1640.9938	-180.24753																																														-1068.9733	210.1214	-1624.686	-1074.0684	248.78244	-1624.0828	-1321.1327	231.81403	1025.0059	-1319.6285	270.56741	1029.1182	848.01099	183.83269	1196.2262	851.66107	222.6001	1194.0435	1088.6112	202.62401	-1428.3464	1082.7439	240.9512	-1432.5419	-1171.8885	1687.0457	-1581.5164	-1170.5503	1648.0701	-1581.1884	-1271.0773	1699.0197	1098.1196	-1271.7352	1660.0432	1099.3051	953.03674	1705.6504	1187.2241	973.00946	1733.8661	1169.1698	1026.5031	1669.2568	-1551.5099	1028.061	1630.2903	-1551.9384	-218.81572	1638.4818	-227.46927	-218.34206	1599.5143	-225.95311
948	7.8916667	-1038.2087	214.59514	-1644.0867	-1109.4274	204.3074	-1599.2853	-1064.1527	172.57774	-1625.2753	-1054.1611	262.37418	-1634.8872	-1352.5681	235.27637	1003.3288	-1281.4342	227.09532	1052.4143	-1322.6631	193.69038	1020.9732	-1284.4016	288.02374	1052.6401	814.20471	187.55217	1209.4528	892.12506	178.63445	1179.1102	844.38904	145.53452	1198.3739	861.03088	292.55219	1168.5345	1115.782	209.99431	-1401.7649	1056.199	194.15341	-1460.2798	1094.6437	162.15224	-1423.9064	1069.6324	239.38747	-1426.1929	-1204.6957	1686.0632	-1562.8136	-1129.1493	1688.3286	-1605.9037	-1173.1654	1724.2965	-1581.8322	-1134.0052	1581.0056	-1603.885	-1239.5964	1699.1738	1119.605	-1309.2811	1698.7432	1071.9832	-1270.4254	1736.3204	1096.9713	-1245.5883	1592.7611	1110.7064	988.93542	1664.2209	1162.1597	957.66205	1700.2297	1183.8865	922.32007	1662.1577	1215.0278	939.81702	1659.4862	1159.8051	999.01947	1668.4883	-1579.4137	1058.7701	1670.0166	-1518.6302	1024.9542	1708.084	-1551.0878	1059.2665	1672.1813	-1585.3994	-180.53293	1639.1422	-226.20259	-266.24619	1637.6969	-229.20569	-219.24446	1675.3683	-228.88379	-217.30708	1636.5306	-259.35922	-220.58934	1640.9584	-180.27376																																														-1069.1613	210.12393	-1624.6154	-1074.3174	248.77563	-1623.936	-1321.1033	231.65762	1025.0409	-1319.5116	270.40338	1029.192	847.95245	183.68983	1196.3112	851.57379	222.46472	1194.2148	1088.4611	202.73068	-1428.5959	1082.6246	241.03653	-1433.0229	-1171.8776	1687.0472	-1581.5323	-1170.5299	1648.0719	-1581.2188	-1270.9973	1698.9796	1098.1458	-1271.5942	1660.0035	1099.3718	952.98334	1705.6168	1187.1368	972.89551	1733.8386	1169.0251	1026.4144	1669.189	-1551.5452	1027.8776	1630.2191	-1552.0035	-218.66989	1638.499	-227.53876	-218.06259	1599.5297	-226.11713
949	7.9	-1038.1873	214.56744	-1644.0603	-1109.4155	204.32298	-1599.2856	-1064.2272	172.67267	-1625.0031	-1054.1449	262.3992	-1634.9263	-1352.697	235.20078	1003.423	-1281.4045	227.20703	1052.3171	-1322.538	193.81079	1020.9595	-1284.424	288.035	1052.6604	814.09827	187.61349	1209.4172	892.13385	178.65036	1179.121	844.35461	145.58226	1198.3357	861.01648	292.56735	1168.4817	1115.7634	209.9646	-1401.7607	1056.2336	194.14095	-1460.257	1094.7196	162.2207	-1423.8552	1069.6755	239.43369	-1426.2064	-1204.7042	1686.0703	-1562.8186	-1129.1626	1688.3041	-1605.8766	-1173.1643	1724.2971	-1581.8376	-1134.0117	1581.006	-1603.8699	-1239.5906	1699.1534	1119.5928	-1309.3066	1698.7881	1072.0093	-1270.4008	1736.299	1096.9575	-1245.5858	1592.7563	1110.6989	988.92859	1664.2395	1162.1702	957.74146	1700.2705	1183.8928	922.27472	1662.1459	1215.0763	939.88159	1659.4857	1159.8114	999.01526	1668.4863	-1579.4376	1058.7516	1670.0059	-1518.6301	1024.9495	1708.0826	-1551.0952	1059.2524	1672.1969	-1585.4064	-180.52641	1639.1512	-226.20317	-266.43851	1637.8783	-229.15393	-219.24347	1675.3672	-228.88388	-217.31793	1636.5438	-259.3497	-220.58455	1640.9541	-180.26302																																														-1069.2961	210.09319	-1624.5049	-1074.5308	248.73686	-1623.9905	-1321.1196	231.66014	1025.0793	-1319.6678	270.40424	1029.2969	847.93762	183.72672	1196.2795	851.57965	222.49998	1194.1895	1088.5341	202.7267	-1428.5173	1082.6843	241.03259	-1432.9263	-1171.8846	1687.0406	-1581.5253	-1170.5459	1648.0649	-1581.1987	-1271.0153	1698.9886	1098.1443	-1271.6572	1660.0137	1099.384	953.08136	1705.6543	1187.1387	973.04333	1733.8467	1169.0358	1026.4067	1669.1831	-1551.5549	1027.8667	1630.2131	-1552.0153	-218.74544	1638.5848	-227.51584	-218.21782	1599.6154	-226.06645
950	7.9083333	-1038.2147	214.51465	-1644.0432	-1109.4133	204.33286	-1599.2917	-1064.0925	172.59477	-1625.3289	-1054.1719	262.32748	-1634.8634	-1352.6005	235.27049	1003.4034	-1281.2983	227.1918	1052.2646	-1322.5426	193.80727	1020.9476	-1284.4774	288.01993	1052.7062	814.08728	187.65974	1209.4149	892.57513	179.31006	1178.5817	844.38861	145.65375	1198.2587	860.99292	292.61206	1168.3993	1115.7501	209.73021	-1401.6031	1056.2273	194.1683	-1460.3005	1094.6019	161.9669	-1423.871	1069.6798	239.45287	-1426.1993	-1204.6927	1686.0778	-1562.8185	-1129.1553	1688.3124	-1605.8663	-1173.1597	1724.2944	-1581.8331	-1134.0137	1581.0132	-1603.8839	-1239.5602	1699.1104	1119.5876	-1309.3666	1698.874	1072.028	-1270.421	1736.3379	1096.9724	-1244.9504	1593.7196	1106.235	988.95667	1664.2555	1162.1794	957.71228	1700.2203	1183.9792	922.20282	1662.1071	1215.0115	939.84198	1659.4299	1159.8485	999.00751	1668.4899	-1579.4402	1058.7662	1670.0129	-1518.6281	1024.9507	1708.0798	-1551.0905	1059.2521	1672.1908	-1585.4128	-180.5425	1639.1573	-226.21095	-266.55505	1637.985	-229.13805	-219.24051	1675.3268	-228.89197	-217.3401	1636.5537	-259.35324	-220.58905	1640.9535	-180.25609																																														-1069.041	210.10629	-1624.6674	-1074.141	248.7654	-1623.9857	-1321.0453	231.69522	1025.0271	-1319.5143	270.44116	1029.1991	847.67621	184.08647	1196.2198	850.99561	222.8904	1194.1613	1088.5085	202.60808	-1428.4667	1082.7618	240.93805	-1432.8013	-1171.8787	1687.0485	-1581.5188	-1170.5382	1648.0729	-1581.1898	-1271.0742	1699.0035	1098.1167	-1271.7562	1660.0278	1099.3115	952.98572	1705.6608	1187.277	972.95667	1733.9169	1169.2838	1026.412	1669.1882	-1551.5525	1027.8763	1630.2185	-1552.0155	-218.78734	1638.636	-227.51245	-218.30603	1599.6665	-226.04727
951	7.9166667	-1038.1989	214.54631	-1644.0459	-1109.3934	204.35045	-1599.3123	-1064.2169	172.64569	-1625.0092	-1054.1763	262.36063	-1634.8792	-1352.6643	235.24046	1003.4053	-1281.3737	227.25401	1052.2983	-1322.6167	193.81815	1020.9875	-1284.413	287.91708	1052.7336	814.09991	187.66541	1209.4371	892.11621	178.62213	1179.1814	844.42114	145.62514	1198.3689	860.9444	292.54648	1168.4833	1115.7843	209.97906	-1401.7678	1056.2472	194.17726	-1460.2465	1094.6699	162.10309	-1423.8934	1069.6832	239.44055	-1426.1857	-1204.7003	1686.0756	-1562.8223	-1129.1793	1688.3113	-1605.8738	-1173.1604	1724.2964	-1581.833	-1134.0099	1581.0082	-1603.8795	-1239.5554	1699.1288	1119.589	-1309.2966	1698.7764	1071.9929	-1270.4279	1736.3378	1096.9697	-1245.025	1593.4724	1106.3418	988.92224	1664.2128	1162.1997	957.67639	1700.2751	1183.9457	922.84442	1661.9796	1215.1444	939.82086	1659.4744	1159.8154	999.0014	1668.4791	-1579.4324	1058.761	1670.0103	-1518.6157	1024.9479	1708.0852	-1551.0955	1059.2469	1672.1869	-1585.406	-180.75023	1639.014	-226.09912	-266.31277	1637.7549	-229.18274	-219.26601	1675.3792	-228.8844	-217.30692	1636.5374	-259.34637	-220.59613	1640.9711	-180.25258																																														-1069.2733	210.09605	-1624.5208	-1074.4912	248.74214	-1624.0168	-1321.1407	231.70898	1025.0249	-1319.6315	270.46039	1029.1541	848.02795	183.7326	1196.2794	851.69745	222.50136	1194.1536	1088.488	202.73431	-1428.5787	1082.6594	241.04248	-1432.9962	-1171.8845	1687.0469	-1581.5292	-1170.5496	1648.071	-1581.2113	-1271.0204	1698.9696	1098.115	-1271.6388	1659.9928	1099.3094	953.29279	1705.3346	1186.9963	973.08685	1733.5189	1168.6979	1026.4031	1669.1812	-1551.5459	1027.8606	1630.2109	-1551.9971	-218.77367	1638.4545	-227.46945	-218.25407	1599.4865	-225.97621
